#Comment line ignore any data following # character 
#Hierarchical Translation and Rotation (.htr) file 
[Header]	
#Header keywords are followed by a single value 
FileType HTR		#Single word string
DataType HTRS		#Translation followed by rotation and scale data
FileVersion 1		#integer
NumSegments 84		#integer
NumFrames 2		#integer
DataFrameRate 30		#integer, data frame rate in this file
EulerRotationOrder ZYX
CalibrationUnits mm
RotationUnits Degrees
GlobalAxisofGravity Y
BoneLengthAxis Y
ScaleFactor 1.00
[SegmentNames&Hierarchy]
#CHILD	PARENT
MASTER GLOBAL
root MASTER
chest root
L_mid_tent01 root
R_mid_tent01 root
spine01 root
Bip01_Neck chest
L_humerus chest
R_humerus chest
weapon_bone chest
Bip01_Head Bip01_Neck
eye_left_bone Bip01_Head
eye_right_bone Bip01_Head
L_forearm L_humerus
L_front_hand L_forearm
L_weapon_bone L_forearm
L_front_hand01_01 L_front_hand
L_front_hand02_01 L_front_hand
L_front_hand03_01 L_front_hand
L_front_hand01_02 L_front_hand01_01
L_front_hand02_02 L_front_hand02_01
L_front_hand03_02 L_front_hand03_01
R_forearm R_humerus
R_front_hand R_forearm
R_weapon_bone R_forearm
R_front_hand01_01 R_front_hand
R_front_hand02_01 R_front_hand
R_front_hand03_01 R_front_hand
R_front_hand01_02 R_front_hand01_01
R_front_hand02_02 R_front_hand02_01
R_front_hand03_02 R_front_hand03_01
null_rope01_connect L_mid_tent01
Rope1_Seg01 null_rope01_connect
Rope1_Seg02 Rope1_Seg01
Rope1_Seg03 Rope1_Seg02
Rope1_Seg04 Rope1_Seg03
Rope1_Seg05 Rope1_Seg04
Rope1_Seg06 Rope1_Seg05
Rope1_Seg07 Rope1_Seg06
Rope1_Seg09 Rope1_Seg07
L_mid_hand01 Rope1_Seg09
L_mid_hand02 Rope1_Seg09
L_mid_hand03 Rope1_Seg09
null_rope02_connect R_mid_tent01
Rope2_Seg01 null_rope02_connect
Rope2_Seg02 Rope2_Seg01
Rope2_Seg03 Rope2_Seg02
Rope2_Seg04 Rope2_Seg03
Rope2_Seg05 Rope2_Seg04
Rope2_Seg06 Rope2_Seg05
Rope2_Seg07 Rope2_Seg06
Rope2_Seg09 Rope2_Seg07
R_mid_hand01 Rope2_Seg09
R_mid_hand02 Rope2_Seg09
R_mid_hand03 Rope2_Seg09
spine02 spine01
spine03 spine02
pelvis spine03
null_rope03_connect pelvis
null_rope04_connect pelvis
Rope3_Seg01 null_rope03_connect
Rope3_Seg02 Rope3_Seg01
Rope3_Seg03 Rope3_Seg02
Rope3_Seg04 Rope3_Seg03
Rope3_Seg05 Rope3_Seg04
Rope3_Seg06 Rope3_Seg05
Rope3_Seg07 Rope3_Seg06
Rope3_Seg08 Rope3_Seg07
Rope3_Seg09 Rope3_Seg08
R_rear_hand01 Rope3_Seg09
R_rear_hand02 Rope3_Seg09
R_rear_hand03 Rope3_Seg09
Rope4_Seg01 null_rope04_connect
Rope4_Seg02 Rope4_Seg01
Rope4_Seg03 Rope4_Seg02
Rope4_Seg04 Rope4_Seg03
Rope4_Seg05 Rope4_Seg04
Rope4_Seg06 Rope4_Seg05
Rope4_Seg07 Rope4_Seg06
Rope4_Seg08 Rope4_Seg07
Rope4_Seg09 Rope4_Seg08
L_rear_hand01 Rope4_Seg09
L_rear_hand02 Rope4_Seg09
L_rear_hand03 Rope4_Seg09
[BasePosition]
#SegmentName Tx, Ty, Tz, Rx, Ry, Rz, BoneLength
MASTER 0.000000 0.000000 0.000000 -90.000000 0.000000 0.000000 10.000000 
root 0.000000 0.000000 0.000000 0.000000 0.000000 0.000000 10.000000 
chest 0.000000 0.000000 0.000000 0.000000 0.000000 0.000000 10.000000 
L_mid_tent01 0.000000 0.000000 0.000000 0.000000 0.000000 0.000000 10.000000 
R_mid_tent01 0.000000 0.000000 0.000000 0.000000 0.000000 0.000000 10.000000 
spine01 0.000000 0.000000 0.000000 0.000000 0.000000 0.000000 10.000000 
Bip01_Neck 0.000000 0.000000 0.000000 0.000000 0.000000 0.000000 10.000000 
L_humerus 0.000000 0.000000 0.000000 0.000000 0.000000 0.000000 10.000000 
R_humerus 0.000000 0.000000 0.000000 0.000000 0.000000 0.000000 10.000000 
weapon_bone 0.000000 0.000000 0.000000 0.000000 0.000000 0.000000 10.000000 
Bip01_Head 0.000000 0.000000 0.000000 0.000000 0.000000 0.000000 10.000000 
eye_left_bone 0.000000 0.000000 0.000000 0.000000 0.000000 0.000000 10.000000 
eye_right_bone 0.000000 0.000000 0.000000 0.000000 0.000000 0.000000 10.000000 
L_forearm 0.000000 0.000000 0.000000 0.000000 0.000000 0.000000 10.000000 
L_front_hand 0.000000 0.000000 0.000000 0.000000 0.000000 0.000000 10.000000 
L_weapon_bone 0.000000 0.000000 0.000000 0.000000 0.000000 0.000000 10.000000 
L_front_hand01_01 0.000000 0.000000 0.000000 0.000000 0.000000 0.000000 10.000000 
L_front_hand02_01 0.000000 0.000000 0.000000 0.000000 0.000000 0.000000 10.000000 
L_front_hand03_01 0.000000 0.000000 0.000000 0.000000 0.000000 0.000000 10.000000 
L_front_hand01_02 0.000000 0.000000 0.000000 0.000000 0.000000 0.000000 10.000000 
L_front_hand02_02 0.000000 0.000000 0.000000 0.000000 0.000000 0.000000 10.000000 
L_front_hand03_02 0.000000 0.000000 0.000000 0.000000 0.000000 0.000000 10.000000 
R_forearm 0.000000 0.000000 0.000000 0.000000 0.000000 0.000000 10.000000 
R_front_hand 0.000000 0.000000 0.000000 0.000000 0.000000 0.000000 10.000000 
R_weapon_bone 0.000000 0.000000 0.000000 0.000000 0.000000 0.000000 10.000000 
R_front_hand01_01 0.000000 0.000000 0.000000 0.000000 0.000000 0.000000 10.000000 
R_front_hand02_01 0.000000 0.000000 0.000000 0.000000 0.000000 0.000000 10.000000 
R_front_hand03_01 0.000000 0.000000 0.000000 0.000000 0.000000 0.000000 10.000000 
R_front_hand01_02 0.000000 0.000000 0.000000 0.000000 0.000000 0.000000 10.000000 
R_front_hand02_02 0.000000 0.000000 0.000000 0.000000 0.000000 0.000000 10.000000 
R_front_hand03_02 0.000000 0.000000 0.000000 0.000000 0.000000 0.000000 10.000000 
null_rope01_connect 0.000000 0.000000 0.000000 0.000000 0.000000 0.000000 10.000000 
Rope1_Seg01 0.000000 0.000000 0.000000 0.000000 0.000000 0.000000 10.000000 
Rope1_Seg02 0.000000 0.000000 0.000000 0.000000 0.000000 0.000000 10.000000 
Rope1_Seg03 0.000000 0.000000 0.000000 0.000000 0.000000 0.000000 10.000000 
Rope1_Seg04 0.000000 0.000000 0.000000 0.000000 0.000000 0.000000 10.000000 
Rope1_Seg05 0.000000 0.000000 0.000000 0.000000 0.000000 0.000000 10.000000 
Rope1_Seg06 0.000000 0.000000 0.000000 0.000000 0.000000 0.000000 10.000000 
Rope1_Seg07 0.000000 0.000000 0.000000 0.000000 0.000000 0.000000 10.000000 
Rope1_Seg09 0.000000 0.000000 0.000000 0.000000 0.000000 0.000000 10.000000 
L_mid_hand01 0.000000 0.000000 0.000000 0.000000 0.000000 0.000000 10.000000 
L_mid_hand02 0.000000 0.000000 0.000000 0.000000 0.000000 0.000000 10.000000 
L_mid_hand03 0.000000 0.000000 0.000000 0.000000 0.000000 0.000000 10.000000 
null_rope02_connect 0.000000 0.000000 0.000000 0.000000 0.000000 0.000000 10.000000 
Rope2_Seg01 0.000000 0.000000 0.000000 0.000000 0.000000 0.000000 10.000000 
Rope2_Seg02 0.000000 0.000000 0.000000 0.000000 0.000000 0.000000 10.000000 
Rope2_Seg03 0.000000 0.000000 0.000000 0.000000 0.000000 0.000000 10.000000 
Rope2_Seg04 0.000000 0.000000 0.000000 0.000000 0.000000 0.000000 10.000000 
Rope2_Seg05 0.000000 0.000000 0.000000 0.000000 0.000000 0.000000 10.000000 
Rope2_Seg06 0.000000 0.000000 0.000000 0.000000 0.000000 0.000000 10.000000 
Rope2_Seg07 0.000000 0.000000 0.000000 0.000000 0.000000 0.000000 10.000000 
Rope2_Seg09 0.000000 0.000000 0.000000 0.000000 0.000000 0.000000 10.000000 
R_mid_hand01 0.000000 0.000000 0.000000 0.000000 0.000000 0.000000 10.000000 
R_mid_hand02 0.000000 0.000000 0.000000 0.000000 0.000000 0.000000 10.000000 
R_mid_hand03 0.000000 0.000000 0.000000 0.000000 0.000000 0.000000 10.000000 
spine02 0.000000 0.000000 0.000000 0.000000 0.000000 0.000000 10.000000 
spine03 0.000000 0.000000 0.000000 0.000000 0.000000 0.000000 10.000000 
pelvis 0.000000 0.000000 0.000000 0.000000 0.000000 0.000000 10.000000 
null_rope03_connect 0.000000 0.000000 0.000000 0.000000 0.000000 0.000000 10.000000 
null_rope04_connect 0.000000 0.000000 0.000000 0.000000 0.000000 0.000000 10.000000 
Rope3_Seg01 0.000000 0.000000 0.000000 0.000000 0.000000 0.000000 10.000000 
Rope3_Seg02 0.000000 0.000000 0.000000 0.000000 0.000000 0.000000 10.000000 
Rope3_Seg03 0.000000 0.000000 0.000000 0.000000 0.000000 0.000000 10.000000 
Rope3_Seg04 0.000000 0.000000 0.000000 0.000000 0.000000 0.000000 10.000000 
Rope3_Seg05 0.000000 0.000000 0.000000 0.000000 0.000000 0.000000 10.000000 
Rope3_Seg06 0.000000 0.000000 0.000000 0.000000 0.000000 0.000000 10.000000 
Rope3_Seg07 0.000000 0.000000 0.000000 0.000000 0.000000 0.000000 10.000000 
Rope3_Seg08 0.000000 0.000000 0.000000 0.000000 0.000000 0.000000 10.000000 
Rope3_Seg09 0.000000 0.000000 0.000000 0.000000 0.000000 0.000000 10.000000 
R_rear_hand01 0.000000 0.000000 0.000000 0.000000 0.000000 0.000000 10.000000 
R_rear_hand02 0.000000 0.000000 0.000000 0.000000 0.000000 0.000000 10.000000 
R_rear_hand03 0.000000 0.000000 0.000000 0.000000 0.000000 0.000000 10.000000 
Rope4_Seg01 0.000000 0.000000 0.000000 0.000000 0.000000 0.000000 10.000000 
Rope4_Seg02 0.000000 0.000000 0.000000 0.000000 0.000000 0.000000 10.000000 
Rope4_Seg03 0.000000 0.000000 0.000000 0.000000 0.000000 0.000000 10.000000 
Rope4_Seg04 0.000000 0.000000 0.000000 0.000000 0.000000 0.000000 10.000000 
Rope4_Seg05 0.000000 0.000000 0.000000 0.000000 0.000000 0.000000 10.000000 
Rope4_Seg06 0.000000 0.000000 0.000000 0.000000 0.000000 0.000000 10.000000 
Rope4_Seg07 0.000000 0.000000 0.000000 0.000000 0.000000 0.000000 10.000000 
Rope4_Seg08 0.000000 0.000000 0.000000 0.000000 0.000000 0.000000 10.000000 
Rope4_Seg09 0.000000 0.000000 0.000000 0.000000 0.000000 0.000000 10.000000 
L_rear_hand01 0.000000 0.000000 0.000000 0.000000 0.000000 0.000000 10.000000 
L_rear_hand02 0.000000 0.000000 0.000000 0.000000 0.000000 0.000000 10.000000 
L_rear_hand03 0.000000 0.000000 0.000000 0.000000 0.000000 0.000000 10.000000 
#Beginning of Data. Separated by tabs
#Fr	Tx	Ty	Tz	Rx	Ry	Rz	SF
[MASTER]
6 0.000003 -0.000094 -283.280396 0.001660 0.001660 0.001660 283.280396
7 0.000003 -0.000093 -391.503387 0.001660 0.001660 0.001660 391.503387
[root]
6 -16.502296 -31.105047 1474.304443 -73.952171 -12.724426 -84.178833 1474.724854
7 -16.502296 -30.376619 1473.355835 -76.836311 -12.897663 -85.225945 1473.761353
[chest]
6 -84.512650 -34.090519 0.000000 -107.883293 6.278542 147.869904 91.129311
7 -84.512650 -34.090519 0.000000 -98.501564 6.223459 150.133530 91.129311
[L_mid_tent01]
6 27.299294 22.178413 -249.918518 -158.127319 53.171768 -66.788567 252.381454
7 27.299292 22.178429 -249.918518 -154.342606 58.618187 -64.079704 252.381454
[R_mid_tent01]
6 23.228794 24.509907 226.238495 -146.540939 -81.582542 35.444927 228.744751
7 23.228794 24.509907 226.238495 -157.603836 -80.905083 46.645561 228.744751
[spine01]
6 -0.361383 -0.195265 0.000000 0.002062 0.001122 32.879829 0.410763
7 -0.361383 -0.195265 0.000000 0.002062 0.001122 32.879822 0.410763
[Bip01_Neck]
6 165.484543 71.581718 0.000119 176.643677 -1.657967 43.431911 180.302734
7 165.484543 71.581718 0.000119 176.643677 -1.657967 43.431911 180.302734
[L_humerus]
6 -13.983130 -135.272980 -120.471481 166.868195 67.226639 -103.302910 181.680161
7 -13.983130 -135.272980 -120.471481 165.679962 67.604439 -104.581436 181.680161
[R_humerus]
6 -13.983309 -135.273102 125.287651 -177.220566 -70.895851 -85.135780 184.909012
7 -13.983309 -135.273102 125.287651 -176.384415 -70.720154 -86.484398 184.909012
[weapon_bone]
6 235.964890 -300.705902 0.000000 0.000000 -89.951546 -128.212341 382.234833
7 235.964890 -300.705902 0.000000 0.000000 -89.951546 -128.212341 382.234833
[Bip01_Head]
6 213.337463 185.980148 8.361081 26.496256 5.502139 -43.847538 283.145538
7 213.335892 185.988953 8.247443 27.391693 5.590215 -43.845486 283.146790
[eye_left_bone]
6 -24.626970 125.451866 -64.772606 0.000000 -90.000000 -99.840431 143.318359
7 -24.626970 125.451866 -64.772606 0.000000 -90.000000 -99.840431 143.318359
[eye_right_bone]
6 -24.626970 125.451866 64.327362 0.000000 -89.965736 80.156380 143.117676
7 -24.626970 125.451866 64.327362 0.000000 -89.980217 80.156380 143.117676
[L_forearm]
6 322.776093 0.000000 -0.000119 0.000249 -0.002334 -102.179192 322.776093
7 322.776093 0.000000 -0.000119 0.000241 -0.002335 -101.776085 322.776093
[L_front_hand]
6 241.149185 -0.042021 -3.300071 -178.452316 -1.658284 -34.427456 241.171753
7 241.149185 -0.042021 -3.300071 -178.460861 -1.666318 -34.114143 241.171753
[L_weapon_bone]
6 156.183838 0.000000 0.000000 0.000014 0.000007 0.000001 156.183838
7 156.183838 0.000000 0.000000 0.000014 0.000007 0.000001 156.183838
[L_front_hand01_01]
6 86.095154 20.947098 -0.655860 -0.349230 -0.490139 73.139862 88.609184
7 86.095154 20.947098 -0.655860 -0.351864 -0.488251 73.756912 88.609184
[L_front_hand02_01]
6 86.935165 -11.437475 24.513514 151.025055 -58.854900 -57.448093 91.046425
7 86.935165 -11.437475 24.513514 151.937759 -59.151104 -58.507717 91.046425
[L_front_hand03_01]
6 86.637497 -14.123976 -20.424902 -150.781433 57.074547 -58.996464 90.126129
7 86.637497 -14.123976 -20.424902 -151.626480 57.374607 -59.999687 90.126129
[L_front_hand01_02]
6 71.020905 -0.000179 0.000030 0.000323 -0.002325 -105.838173 71.020905
7 71.020905 -0.000179 0.000030 0.000324 -0.002325 -105.890907 71.020905
[L_front_hand02_02]
6 71.020927 -0.000119 0.000060 0.000323 -0.002325 -105.838173 71.020927
7 71.020927 -0.000119 0.000060 0.000324 -0.002325 -105.890907 71.020927
[L_front_hand03_02]
6 71.020905 -0.000060 0.000060 0.000323 -0.002325 -105.838173 71.020905
7 71.020905 -0.000060 0.000060 0.000324 -0.002325 -105.890907 71.020905
[R_forearm]
6 322.776428 -0.000060 0.000030 0.211196 0.033682 -100.005585 322.776428
7 322.776428 -0.000060 0.000030 0.211305 0.032995 -99.632782 322.776428
[R_front_hand]
6 238.847015 -0.006795 2.210259 -1.083089 -10.910607 -34.600830 238.857239
7 238.847015 -0.006795 2.210259 -1.153018 -10.904688 -34.229870 238.857239
[R_weapon_bone]
6 155.664093 0.002503 -0.000030 0.003487 0.001180 -90.988930 155.664078
7 155.664093 0.002503 -0.000030 0.003487 0.001180 -90.988930 155.664078
[R_front_hand01_01]
6 87.624611 14.231146 22.918642 -154.293076 -59.856663 61.349682 91.683487
7 87.624611 14.231146 22.918642 -154.633514 -59.950634 61.746063 91.683487
[R_front_hand02_01]
6 89.356956 14.367283 -19.491137 154.283218 58.213089 63.373535 92.579636
7 89.356956 14.367283 -19.491137 154.602676 58.302864 63.744400 92.579636
[R_front_hand03_01]
6 87.286232 -22.307278 -0.143439 0.161369 -0.423469 -75.555016 90.091743
7 87.286232 -22.307278 -0.143439 0.162155 -0.423168 -75.767921 90.091743
[R_front_hand01_02]
6 71.020905 0.000060 0.000119 0.002323 -0.000334 106.381714 71.020905
7 71.020905 0.000060 0.000119 0.002323 -0.000334 106.381714 71.020905
[R_front_hand02_02]
6 71.020844 -0.000030 -0.000119 0.002323 -0.000334 106.381714 71.020836
7 71.020844 -0.000030 -0.000119 0.002323 -0.000334 106.381714 71.020836
[R_front_hand03_02]
6 71.020905 0.000000 0.000030 0.002323 -0.000334 106.381714 71.020905
7 71.020905 0.000000 0.000030 0.002323 -0.000334 106.381714 71.020905
[null_rope01_connect]
6 328.732483 0.000000 -0.000238 -162.580185 16.114471 -159.569443 328.732483
7 328.732483 0.000000 -0.000238 -162.801239 13.486277 -161.295898 328.732483
[Rope1_Seg01]
6 0.000009 -0.000055 0.000035 -3.258691 7.506138 -163.456238 0.000066
7 0.000010 -0.000055 0.000042 -4.308320 6.708499 -164.453781 0.000069
[Rope1_Seg02]
6 139.999863 -0.000179 0.000000 -11.221313 -12.883916 -10.761242 139.999863
7 139.999863 -0.000179 0.000000 -11.617733 -13.625607 -11.267026 139.999863
[Rope1_Seg03]
6 139.999924 0.000060 -0.000060 -11.166287 -12.287321 -19.546310 139.999924
7 139.999924 0.000060 -0.000060 -11.649190 -13.670204 -21.009014 139.999924
[Rope1_Seg04]
6 139.999924 -0.000060 -0.000119 -5.871393 -6.889257 -19.579563 139.999924
7 139.999924 -0.000060 -0.000119 -5.662001 -6.989547 -20.851974 139.999924
[Rope1_Seg05]
6 139.999832 0.000119 -0.000060 -4.103565 -14.862246 -11.151416 139.999832
7 139.999832 0.000119 -0.000060 -2.908398 -11.338719 -8.478008 139.999832
[Rope1_Seg06]
6 139.999954 0.000119 -0.000060 -3.704043 -11.665930 -8.018435 139.999954
7 139.999954 0.000119 -0.000060 -2.802327 -9.988560 -4.875039 139.999954
[Rope1_Seg07]
6 139.999985 0.000060 0.000000 -2.152028 -5.025182 -5.471360 139.999985
7 139.999985 0.000060 0.000000 -1.865793 -4.647661 -4.270115 139.999985
[Rope1_Seg09]
6 121.602913 0.000119 -0.000089 -89.793175 -1.359789 0.847147 121.602913
7 121.602913 0.000119 -0.000089 -89.793175 -1.359789 0.847147 121.602913
[L_mid_hand01]
6 103.859421 1.038730 8.195221 130.544388 -67.584534 -38.866955 104.187431
7 103.859421 1.038730 8.195221 130.544373 -67.584534 -38.866943 104.187431
[L_mid_hand02]
6 105.572853 -4.139662 -10.864139 -168.923172 43.409309 -73.498894 106.211075
7 105.572853 -4.139662 -10.864139 -168.923172 43.409321 -73.498909 106.211075
[L_mid_hand03]
6 104.641464 17.579376 -3.913581 -6.012627 17.808174 74.893669 106.179977
7 104.641464 17.579376 -3.913581 -6.012627 17.808174 74.893669 106.179977
[null_rope02_connect]
6 328.732849 0.000179 -0.000119 -147.244385 -11.182032 -5.411829 328.732849
7 328.732849 0.000179 -0.000119 -146.950943 -6.545364 -4.112102 328.732849
[Rope2_Seg01]
6 -0.000055 0.000100 0.000000 78.082008 38.346096 13.974857 0.000114
7 -0.000050 0.000100 0.000000 75.389565 41.011745 10.951031 0.000112
[Rope2_Seg02]
6 139.999741 -0.000060 -0.000119 1.812270 3.710547 6.765001 139.999756
7 139.999741 -0.000060 -0.000119 1.475936 3.702013 5.301745 139.999756
[Rope2_Seg03]
6 140.000107 0.000030 0.000000 4.600358 8.595157 16.217264 140.000107
7 140.000107 0.000030 0.000000 3.453332 8.288611 12.673538 140.000107
[Rope2_Seg04]
6 139.999802 0.000000 -0.000060 14.430965 19.199640 45.066925 139.999802
7 139.999802 0.000000 -0.000060 13.637049 22.121296 45.355934 139.999802
[Rope2_Seg05]
6 139.999985 -0.000060 0.000119 -2.518411 29.406450 -3.364975 139.999985
7 139.999985 -0.000060 0.000119 -5.839543 35.038754 -16.656429 139.999985
[Rope2_Seg06]
6 139.999893 -0.000030 -0.000119 -2.231101 16.431019 -5.274942 139.999893
7 139.999893 -0.000030 -0.000119 0.241205 11.429980 -6.155392 139.999893
[Rope2_Seg07]
6 139.999893 0.000060 -0.000060 -2.892790 7.787112 -0.497750 139.999893
7 139.999893 0.000060 -0.000060 -0.779918 4.942882 -1.705296 139.999893
[Rope2_Seg09]
6 121.338966 0.000089 -0.000060 33.793236 -1.359788 -0.847141 121.338966
7 121.338966 0.000089 -0.000060 33.793236 -1.359788 -0.847141 121.338966
[R_mid_hand01]
6 104.680779 11.144459 -10.335981 -16.212063 45.237247 70.462852 105.778534
7 104.680779 11.144459 -10.335981 -16.212059 45.237240 70.462852 105.778534
[R_mid_hand02]
6 104.070427 2.443552 8.231699 49.067368 -67.749771 39.286453 104.424065
7 104.070427 2.443552 8.231699 49.067368 -67.749771 39.286453 104.424065
[R_mid_hand03]
6 106.028137 -11.221827 -5.996406 -177.101105 15.551026 -76.585587 106.788818
7 106.028137 -11.221827 -5.996406 -177.101105 15.551026 -76.585571 106.788818
[spine02]
6 129.756927 0.001550 0.000119 -1.188786 -4.247816 9.099290 129.756927
7 129.756927 0.001550 0.000119 -1.192702 -4.228881 9.155457 129.756927
[spine03]
6 78.613945 0.084154 -4.898955 0.926356 4.853793 2.773743 78.766487
7 78.613945 0.084093 -4.898956 0.924353 4.821858 2.744896 78.766487
[pelvis]
6 169.435242 0.051022 0.000000 0.023545 0.080863 -13.646039 169.435257
7 169.435242 0.051022 0.000000 0.023232 0.069224 -13.725732 169.435257
[null_rope03_connect]
6 -1.257226 -2.466202 137.391083 30.524273 -72.640472 40.408401 137.418976
7 -1.257226 -2.466202 137.391083 30.898335 -75.873100 40.522060 137.418976
[null_rope04_connect]
6 -1.259640 -2.480268 -137.844437 30.524273 -72.640472 40.408401 137.872513
7 -1.259640 -2.480268 -137.844437 30.898335 -75.873100 40.522060 137.872513
[Rope3_Seg01]
6 -0.000003 0.000004 -0.000101 14.097305 -5.109480 -56.123100 0.000101
7 -0.000004 0.000005 -0.000090 14.057960 -5.516670 -56.579460 0.000090
[Rope3_Seg02]
6 139.999924 -0.000119 0.000060 -2.094305 -5.574431 2.560199 139.999924
7 139.999924 -0.000119 0.000060 -2.061924 -5.537645 2.726326 139.999924
[Rope3_Seg03]
6 139.999924 -0.000119 0.000119 -2.982684 -8.496353 3.567448 139.999924
7 139.999924 -0.000119 0.000119 -2.913383 -8.261014 3.744301 139.999924
[Rope3_Seg04]
6 139.999924 0.000119 0.000000 -4.578083 -14.307078 5.781246 139.999924
7 139.999924 0.000119 0.000000 -4.528920 -13.499077 6.117291 139.999924
[Rope3_Seg05]
6 139.999924 -0.000238 0.000060 -6.134531 -24.411158 9.865500 139.999924
7 139.999924 -0.000238 0.000060 -6.278786 -21.974289 10.075137 139.999924
[Rope3_Seg06]
6 139.999893 -0.000119 -0.000060 0.213017 -11.768463 -1.134012 139.999893
7 139.999893 -0.000119 -0.000060 0.031357 -10.906350 -2.028452 139.999893
[Rope3_Seg07]
6 139.999771 0.000060 -0.000119 0.191134 0.062674 -6.866972 139.999771
7 139.999771 0.000060 -0.000119 0.337085 -0.693915 -7.895174 139.999771
[Rope3_Seg08]
6 139.999985 -0.000060 0.000000 0.761923 -2.959452 -2.610703 139.999985
7 139.999985 -0.000060 0.000000 0.767629 -3.184732 -2.983686 139.999985
[Rope3_Seg09]
6 90.185997 -0.000179 -0.000060 89.793228 -1.359877 -0.847183 90.185997
7 90.185997 -0.000179 -0.000060 89.793228 -1.359877 -0.847183 90.185997
[R_rear_hand01]
6 103.366196 -6.073594 -10.757982 -177.714188 24.565962 -73.910950 104.101845
7 103.366196 -6.073594 -10.757982 -177.714203 24.565966 -73.910957 104.101845
[R_rear_hand02]
6 100.509819 12.039542 -7.992327 -12.874827 36.868492 72.167221 101.543350
7 100.509819 12.039542 -7.992327 -12.874834 36.868500 72.167229 101.543350
[R_rear_hand03]
6 101.539970 5.215704 5.435467 71.484581 -71.816628 21.513813 101.819031
7 101.539970 5.215704 5.435467 71.484581 -71.816628 21.513813 101.819031
[Rope4_Seg01]
6 0.000000 0.000000 0.000000 -95.982193 -17.357052 -115.020866 0.000000
7 0.000000 0.000000 0.000000 -95.474129 -18.089180 -116.112183 0.000000
[Rope4_Seg02]
6 139.999985 0.000060 0.000119 0.842169 2.469607 -9.578631 139.999985
7 139.999985 0.000060 0.000119 1.016362 2.614347 -10.587137 139.999985
[Rope4_Seg03]
6 139.999924 0.000000 -0.000238 0.522645 2.682392 -11.258910 139.999924
7 139.999924 0.000000 -0.000238 0.604149 2.771257 -12.067379 139.999924
[Rope4_Seg04]
6 139.999985 0.000000 0.000119 0.074965 3.979084 -10.879359 139.999985
7 139.999985 0.000000 0.000119 0.117399 3.991970 -10.624423 139.999985
[Rope4_Seg05]
6 139.999802 -0.000060 -0.000119 -0.073336 2.065770 -10.192975 139.999802
7 139.999802 -0.000060 -0.000119 -0.042926 1.279201 -10.638091 139.999802
[Rope4_Seg06]
6 139.999924 0.000000 0.000060 -0.682424 -1.430829 -13.773346 139.999924
7 139.999924 0.000000 0.000060 -0.925064 -2.292414 -15.201442 139.999924
[Rope4_Seg07]
6 139.999802 0.000000 0.000000 -2.738843 -2.415669 -16.705418 139.999802
7 139.999802 0.000000 0.000000 -3.062474 -2.172972 -15.845736 139.999802
[Rope4_Seg08]
6 139.999924 0.000000 0.000119 -4.964554 -0.299665 -11.046737 139.999924
7 139.999924 0.000000 0.000119 -4.812345 -0.318620 -9.962032 139.999924
[Rope4_Seg09]
6 90.185791 0.000060 0.000060 -135.617828 2.228885 0.850567 90.185791
7 90.185791 0.000060 0.000060 -135.617828 2.228885 0.850567 90.185791
[L_rear_hand01]
6 101.696655 -8.392275 -7.654577 -12.874827 -36.868492 107.832764 102.329041
7 101.696655 -8.392275 -7.654577 -12.874834 -36.868500 107.832779 102.329041
[L_rear_hand02]
6 102.726799 -1.568258 5.773216 71.484581 71.816628 158.486160 102.900848
7 102.726799 -1.568258 5.773216 71.484581 71.816628 158.486160 102.900848
[L_rear_hand03]
6 104.552910 9.721220 -10.420293 -177.714188 -24.565962 -106.089035 105.519653
7 104.552910 9.721220 -10.420293 -177.714203 -24.565966 -106.089035 105.519653
